# xmcd
#
# Track frame offsets: 
#        150
#        13053
#        25177
#        35578
#        50883
#        62892
#        77211
#        89276
#        98365
#        109607
#        118765
#        125747
#
# Disc length: 1776 seconds
#
# Revision: 0
# Processed by: cddbd v1.5.2PL0 Copyright (c) Steve Scherf et al.
# Submitted via: ExactAudioCopy v0.95b4
#
DISCID=9e06ee0c
DTITLE=Thomas Mailk - Gleich hinter Purkersdorf
DYEAR=2001
DGENRE=Wienerlied
TTITLE0=Schoen is so a Ringelspiel
TTITLE1=Ja da waer es halt gut wenn man Englisch könnt
TTITLE2=Gleich hinter Purkersdorf
TTITLE3=Powidltatschkerln
TTITLE4=Du muasst selber an die glaubn
TTITLE5=Der billige Verkauf
TTITLE6=I hab z'viel Gfuehl
TTITLE7=Duenn is die Leopoldin
TTITLE8=Ich danke dem Herrgott
TTITLE9=I bin a Favoritner Kind
TTITLE10=Du bist a klane Osterratsche
TTITLE11=Kinderglueck
EXTD=
EXTT0=
EXTT1=
EXTT2=
EXTT3=
EXTT4=
EXTT5=
EXTT6=
EXTT7=
EXTT8=
EXTT9=
EXTT10=
EXTT11=
PLAYORDER=
